<svg id="image" xmlns="http://www.w3.org/2000/svg" viewBox="0 0 512.17 484.52"><title>logo</title><path d="M15.26,338.72q0-11.94,7.16-19.14t18.95-7.2q11.82,0,19,7.2t7.16,19.14q0,12-7.16,19.21t-19,7.24q-11.79,0-18.95-7.24T15.26,338.72Zm8.69,0q0,10.9,4.72,17.29a15,15,0,0,0,12.7,6.38A15,15,0,0,0,54.1,356q4.71-6.37,4.71-17.29t-4.71-17.2a15,15,0,0,0-12.73-6.36,15,15,0,0,0-12.7,6.36Q24,327.9,24,338.72Z" transform="translate(0.53 -27.17)"/><path d="M72.5,364v-1.35c2.12-.1,3.52-.48,4.21-1.16s1-2.2,1-4.58V338.44c0-2.21-.24-3.56-.73-4s-1.53-.71-3.12-.71H72.5v-1.39a30.2,30.2,0,0,0,4.64-1.11c1.75-.55,4.11-1.41,7-2.6v5.77a24.42,24.42,0,0,1,6-4.22,13.45,13.45,0,0,1,5.74-1.34c3.18,0,5.44,1,6.77,3s2,5.52,2,10.6v15.69a4.77,4.77,0,0,0,1,3.49,5.67,5.67,0,0,0,3.73,1V364H92.93l0-1.39c2.12,0,3.54-.4,4.28-1.06s1.1-2,1.1-3.89V342.32c0-3.28-.48-5.62-1.46-7a5.35,5.35,0,0,0-4.74-2.1,9.65,9.65,0,0,0-4.19,1,12.21,12.21,0,0,0-3.76,2.89v20.17c0,2.12.34,3.53,1,4.24s2,1.11,4,1.18V364Z" transform="translate(0.53 -27.17)"/><path d="M112.5,332.23v-1a23.13,23.13,0,0,0,6-5,27.08,27.08,0,0,0,4.23-7h1.39v10.41h8.16v2.56h-8.16v23.14a7.44,7.44,0,0,0,.78,4,3.05,3.05,0,0,0,2.71,1.14,5.69,5.69,0,0,0,2.53-.62,8.83,8.83,0,0,0,2.42-1.87l1,1a16,16,0,0,1-4.32,4.4,8.92,8.92,0,0,1-4.88,1.37c-2.31,0-4-.64-5.06-1.92s-1.61-3.3-1.61-6.06v-24.6Z" transform="translate(0.53 -27.17)"/><path d="M157.76,360a25.73,25.73,0,0,1-5.84,3.53,14.18,14.18,0,0,1-5.38,1.14,8.57,8.57,0,0,1-6.19-2.2,7.76,7.76,0,0,1-2.3-5.9,9.58,9.58,0,0,1,4.12-7.82q4.11-3.2,15.38-6.75v-4q0-4.14-1.34-5.76t-4.65-1.62a6.88,6.88,0,0,0-4.1,1.2,3.44,3.44,0,0,0-1.67,2.83,8.37,8.37,0,0,0,.14,1,9,9,0,0,1,.14,1.43,2.94,2.94,0,0,1-.94,2.24,3.7,3.7,0,0,1-4.89-.07,3.55,3.55,0,0,1-.94-2.6c0-2.07,1.22-3.87,3.65-5.42a16.33,16.33,0,0,1,8.9-2.32c4.11,0,7.13.91,9.07,2.71s2.9,4.62,2.9,8.45V357a5.51,5.51,0,0,0,.5,2.71,1.73,1.73,0,0,0,1.61.82,3.45,3.45,0,0,0,1.49-.3,6.43,6.43,0,0,0,1.5-1.09l.89,1a11.86,11.86,0,0,1-3.53,3.35,7.58,7.58,0,0,1-3.92,1.18,3.9,3.9,0,0,1-2.89-1.11A7.67,7.67,0,0,1,157.76,360Zm-.21-2.93V343.93q-6.95,2.34-10.05,4.88a7.42,7.42,0,0,0-3.1,5.85,6.47,6.47,0,0,0,1.71,4.58,5.6,5.6,0,0,0,4.28,1.83,8.34,8.34,0,0,0,4.08-1.1A8.2,8.2,0,0,0,157.55,357Z" transform="translate(0.53 -27.17)"/><path d="M172.38,364V362.6q3.35-.21,4.56-1.47c.81-.85,1.21-2.38,1.21-4.59V338.79c0-2.11-.29-3.48-.87-4.1s-1.75-.92-3.51-.92h-1.18v-1.39c2.73-.79,5.06-1.48,7-2.09s3.58-1.17,5-1.69v6.84a25.4,25.4,0,0,1,4.77-4.93,7.25,7.25,0,0,1,4.21-1.63,4.32,4.32,0,0,1,3,1.06,3.38,3.38,0,0,1,1.18,2.65,3.66,3.66,0,0,1-.8,2.46,2.67,2.67,0,0,1-2.12.93,5.07,5.07,0,0,1-2.8-1,5,5,0,0,0-2.08-1,3.64,3.64,0,0,0-2.38,1.09,21.36,21.36,0,0,0-3,3.58v18.64c0,2,.41,3.42,1.25,4.14s2.5,1.13,5,1.24V364Z" transform="translate(0.53 -27.17)"/><path d="M200.54,364l0-1.39c2.12-.07,3.52-.44,4.21-1.12s1-2.2,1-4.58V338.08c0-2.23-.23-3.58-.71-4s-1.45-.7-2.95-.7H201V332a34.68,34.68,0,0,0,4.86-1.14q2.86-.85,6.47-2.21v28.62q0,3.28,1,4.32c.67.68,2,1,3.93,1.06V364Zm4.84-48.33a4.06,4.06,0,1,1,1.19,2.91A4,4,0,0,1,205.38,315.66Z" transform="translate(0.53 -27.17)"/><path d="M238,364.88a16,16,0,0,1-12.21-5q-4.72-5-4.72-13,0-8.13,4.93-13.22a17.11,17.11,0,0,1,12.85-5.1q7.64,0,12.21,4.83t4.58,12.88q0,8.49-4.79,13.53C247.65,363.21,243.37,364.88,238,364.88Zm-10-20.53q0,8.17,3.12,13.25t8,5.08q4.85,0,7.22-3.3t2.37-10q0-8.49-3.14-13.65t-8.13-5.17a8,8,0,0,0-7,3.62Q228,337.79,228,344.35Z" transform="translate(0.53 -27.17)"/><path d="M278.49,364l0-1.53q4.46-.07,5.93-1.42t1.48-5.35v-33.9q0-3.89-1.53-5.27T278.49,315v-1.49h22.85V315q-4.48.22-5.93,1.57c-1,.91-1.45,2.65-1.45,5.24v12.58a2.75,2.75,0,0,0,.46,1.86,2.63,2.63,0,0,0,1.82.46H317.7a2,2,0,0,0,1.57-.48,3.48,3.48,0,0,0,.39-2V321.79q0-3.85-1.48-5.22c-1-.92-3-1.43-5.93-1.55l0-1.53h22.92V315q-4.42.11-5.92,1.46t-1.49,5.31v33.9q0,3.88,1.51,5.27t5.9,1.5V364H312.21l0-1.53c2.94-.07,4.92-.56,5.91-1.48s1.5-2.65,1.5-5.22v-13.9a3.06,3.06,0,0,0-.39-1.87,2.06,2.06,0,0,0-1.57-.45H296.17a2.29,2.29,0,0,0-1.71.52,2.57,2.57,0,0,0-.5,1.8v13.83c0,2.61.49,4.38,1.48,5.29s2.95,1.41,5.9,1.48V364Z" transform="translate(0.53 -27.17)"/><path d="M355.8,364.88a16,16,0,0,1-12.2-5q-4.73-5-4.73-13,0-8.13,4.94-13.22a17.07,17.07,0,0,1,12.85-5.1q7.63,0,12.21,4.83t4.58,12.88q0,8.49-4.79,13.53C365.46,363.21,361.17,364.88,355.8,364.88Zm-10-20.53q0,8.17,3.12,13.25t8,5.08q4.85,0,7.21-3.3t2.37-10q0-8.49-3.13-13.65t-8.13-5.17a8,8,0,0,0-7,3.62Q345.79,337.79,345.79,344.35Z" transform="translate(0.53 -27.17)"/><path d="M377.76,364v-1.35c2.05-.1,3.41-.47,4.08-1.12s1-1.87,1-3.66v-18.6c0-2.45-.29-4-.86-4.62s-1.74-.94-3.53-.94h-.71v-1.39a44.09,44.09,0,0,0,6.12-1.48,35.2,35.2,0,0,0,5.43-2.23v6.06a26.53,26.53,0,0,1,5.94-4.42,11.69,11.69,0,0,1,5.34-1.43,8.63,8.63,0,0,1,5.19,1.57,8.53,8.53,0,0,1,3.1,4.42,41.58,41.58,0,0,1,6.88-4.67,11.26,11.26,0,0,1,4.95-1.32q4.82,0,6.94,2.75c1.41,1.83,2.12,4.9,2.12,9.23V356.9c0,2.64.29,4.24.89,4.8s1.95.86,4.06.9V364H417.86l0-1.39c2.3-.07,3.79-.35,4.45-.85s1-1.72,1-3.67V339.47a5.93,5.93,0,0,0-1.64-4.47,6.27,6.27,0,0,0-4.56-1.59,8.41,8.41,0,0,0-3.65.86,17.33,17.33,0,0,0-4,2.85v20.53c0,2.11.32,3.47,1,4.06s2,.89,4.18.89V364h-17l0-1.39c2.23-.11,3.7-.43,4.4-.94s1.05-1.52,1.05-3v-19a6.53,6.53,0,0,0-1.53-4.63,5.6,5.6,0,0,0-4.3-1.64,8.87,8.87,0,0,0-3.84.93,17.79,17.79,0,0,0-4.16,2.92v20.89c0,1.78.33,3,1,3.53s2,.89,4.19,1V364Z" transform="translate(0.53 -27.17)"/><path d="M468.62,351.09l1.32.79q-3,6.58-7,9.8a14.37,14.37,0,0,1-9.25,3.2A13.34,13.34,0,0,1,443,360.11c-2.74-3.19-4.1-7.34-4.1-12.48q0-8.47,4.42-13.68a14.41,14.41,0,0,1,11.55-5.21,12.41,12.41,0,0,1,9.3,3.62q3.53,3.61,3.92,10H444.45v.79q0,7.31,3.41,11.65a10.9,10.9,0,0,0,9,4.35,11.15,11.15,0,0,0,6.42-2A18.64,18.64,0,0,0,468.62,351.09ZM444.7,340.18h14.15a3.2,3.2,0,0,0,1.68-.25,1.42,1.42,0,0,0,.28-1.06,7.83,7.83,0,0,0-2.08-5.58,6.93,6.93,0,0,0-5.29-2.23,8,8,0,0,0-6,2.39A11.12,11.12,0,0,0,444.7,340.18Z" transform="translate(0.53 -27.17)"/><path d="M475.5,364.42l-.43-12.05h1.39a16.74,16.74,0,0,0,3.85,7.83,8.32,8.32,0,0,0,6.2,2.76,6.57,6.57,0,0,0,4.57-1.55,5.51,5.51,0,0,0,.58-7.33,14.36,14.36,0,0,0-4-3.1l-6.49-3.7a14.17,14.17,0,0,1-4.77-4.1,9,9,0,0,1-1.5-5.17,8.75,8.75,0,0,1,2.87-6.77,10.38,10.38,0,0,1,7.32-2.64,16.8,16.8,0,0,1,4.51.66,22.85,22.85,0,0,0,2.66.66,1.32,1.32,0,0,0,.87-.32,2.16,2.16,0,0,0,.59-.93h1.18l.49,10.44H494a11.79,11.79,0,0,0-2.95-6.31,7.34,7.34,0,0,0-5.42-2.24,6,6,0,0,0-4.07,1.34,4.27,4.27,0,0,0-1.56,3.4,5.21,5.21,0,0,0,1.17,3.33,12.62,12.62,0,0,0,3.85,2.94l6.38,3.46a13.39,13.39,0,0,1,4.9,4.12,9.43,9.43,0,0,1,1.59,5.43,9.8,9.8,0,0,1-3,7.35,10.48,10.48,0,0,1-7.61,2.88,21.16,21.16,0,0,1-5.18-.76,22.13,22.13,0,0,0-3.73-.77,2.16,2.16,0,0,0-1.19.27,1.32,1.32,0,0,0-.55.87Z" transform="translate(0.53 -27.17)"/><path d="M132.25,472.71V446.39h8.51q3.9,0,5.61,1.74c1.14,1.16,1.71,3.07,1.71,5.71s-.61,4.53-1.82,5.8-3.07,1.91-5.57,1.91h-3.57v11.16Zm4.74-14.8h2a4.56,4.56,0,0,0,3.21-.9,4.2,4.2,0,0,0,.92-3.07,4.27,4.27,0,0,0-.84-3,4.64,4.64,0,0,0-3.23-.85H137Z" transform="translate(0.53 -27.17)"/><path d="M154.82,472.71V446.39h4.87v10.32h6.72V446.39h4.87v26.32h-4.87V460.78h-6.72v11.93Z" transform="translate(0.53 -27.17)"/><path d="M178.73,459.55a45.46,45.46,0,0,1,.39-6.69,9.6,9.6,0,0,1,1.23-3.77,6.71,6.71,0,0,1,2.73-2.56,11.76,11.76,0,0,1,8.37,0,6.87,6.87,0,0,1,2.75,2.56,10.14,10.14,0,0,1,1.22,3.79,46.92,46.92,0,0,1,.38,6.67,45.19,45.19,0,0,1-.39,6.66,10.33,10.33,0,0,1-1.21,3.8,7,7,0,0,1-2.75,2.56,11.76,11.76,0,0,1-8.37,0,6.77,6.77,0,0,1-2.73-2.56,9.6,9.6,0,0,1-1.23-3.77A45.46,45.46,0,0,1,178.73,459.55Zm5,0c0,4.33.25,7.05.76,8.18a2.79,2.79,0,0,0,2.8,1.68,2.74,2.74,0,0,0,2.75-1.65c.5-1.1.74-3.84.74-8.21s-.25-7.12-.75-8.24a3.14,3.14,0,0,0-5.55,0C184,452.43,183.74,455.17,183.74,459.55Z" transform="translate(0.53 -27.17)"/><path d="M207,472.71v-22H201.4v-4.34h16.19v4.34H212v22Z" transform="translate(0.53 -27.17)"/><path d="M223.14,459.55a45.46,45.46,0,0,1,.39-6.69,9.6,9.6,0,0,1,1.23-3.77,6.71,6.71,0,0,1,2.73-2.56,11.76,11.76,0,0,1,8.37,0,6.87,6.87,0,0,1,2.75,2.56,10.14,10.14,0,0,1,1.22,3.79,46.92,46.92,0,0,1,.38,6.67,45.19,45.19,0,0,1-.39,6.66,10.33,10.33,0,0,1-1.21,3.8,7,7,0,0,1-2.75,2.56,11.76,11.76,0,0,1-8.37,0,6.77,6.77,0,0,1-2.73-2.56,9.6,9.6,0,0,1-1.23-3.77A45.46,45.46,0,0,1,223.14,459.55Zm5,0c0,4.33.25,7.05.76,8.18a2.79,2.79,0,0,0,2.8,1.68,2.74,2.74,0,0,0,2.75-1.65c.5-1.1.74-3.84.74-8.21s-.25-7.12-.75-8.24a3.14,3.14,0,0,0-5.55,0C228.4,452.43,228.15,455.17,228.15,459.55Z" transform="translate(0.53 -27.17)"/><path d="M260.7,472.71l-.36-2.91a5.43,5.43,0,0,1-2.06,2.72,6.71,6.71,0,0,1-3.6.82q-4.12,0-5.82-3.13t-1.68-11.46a38.49,38.49,0,0,1,.4-6.25,9.45,9.45,0,0,1,1.26-3.63,6.15,6.15,0,0,1,2.72-2.33,10.35,10.35,0,0,1,4.2-.75q4.25,0,6.25,2c1.34,1.33,2,3.41,2,6.22v.67h-4.58v-.27a6,6,0,0,0-.89-3.57,3,3,0,0,0-2.62-1.2,2.93,2.93,0,0,0-2.92,1.64q-.8,1.64-.79,8.7,0,5.56.75,7.45a2.73,2.73,0,0,0,2.72,1.88,3,3,0,0,0,2.78-1.34,9,9,0,0,0,.83-4.51v-.9h-3.4v-4.21H264v14.36Z" transform="translate(0.53 -27.17)"/><path d="M271.82,472.71V446.39h8.79q4,0,5.73,1.61t1.75,5.28a7.46,7.46,0,0,1-.94,4,3.74,3.74,0,0,1-2.77,1.73c2.33.62,3.54,2.58,3.64,5.9v.34l.14,3.49a8.75,8.75,0,0,0,.38,2.38,3.92,3.92,0,0,0,.95,1.55h-5.81a9.69,9.69,0,0,1-.31-1.57c-.06-.59-.11-1.44-.13-2.53l-.07-2.75v-.71a4.1,4.1,0,0,0-1-3.14c-.65-.57-2-.85-4-.85h-1.67v11.55Zm4.74-15.19h2.82a4.06,4.06,0,0,0,3-.86,4.4,4.4,0,0,0,.83-3.06,3.49,3.49,0,0,0-.91-2.75,5.15,5.15,0,0,0-3.29-.79h-2.41Z" transform="translate(0.53 -27.17)"/><path d="M293.59,472.71l5.93-26.32h6.58l6,26.32H306.8l-1.3-6.62h-5.64l-1.26,6.62Zm7-10.56h4.17l-2.1-11Z" transform="translate(0.53 -27.17)"/><path d="M318.16,472.71V446.39h8.51q3.9,0,5.61,1.74c1.14,1.16,1.71,3.07,1.71,5.71s-.61,4.53-1.82,5.8-3.07,1.91-5.56,1.91H323v11.16Zm4.74-14.8H325a4.56,4.56,0,0,0,3.21-.9,4.16,4.16,0,0,0,.92-3.07,4.27,4.27,0,0,0-.84-3,4.62,4.62,0,0,0-3.22-.85H322.9Z" transform="translate(0.53 -27.17)"/><path d="M340.73,472.71V446.39h4.88v10.32h6.71V446.39h4.87v26.32h-4.87V460.78h-6.71v11.93Z" transform="translate(0.53 -27.17)"/><path d="M370.14,472.71V461.55l-6.9-15.16h5.43l4,9.9,3.93-9.9h5.28l-6.79,15.16v11.16Z" transform="translate(0.53 -27.17)"/><path d="M192.58,278.83a11.68,11.68,0,0,1-11.68-11.68V231.84l-.31-.29a108.37,108.37,0,0,1-33.51-74.36l0-1H130.17v-6.46H147l0-1A108.9,108.9,0,0,1,251.81,44.08l1,0V27.17h6.46V43.08l1-1,0,2A108.9,108.9,0,0,1,364.92,148.81l0,1h16.87v6.46H365l0,1a108.37,108.37,0,0,1-33.51,74.36l-.31.29v35.31a11.68,11.68,0,0,1-11.68,11.68Zm-5.22-11.68a5.23,5.23,0,0,0,5.23,5.23H319.42a5.31,5.31,0,0,0,3.7-1.53,5.23,5.23,0,0,0,1.53-3.7V249.24H287.26l-.3.45a37.06,37.06,0,0,1-61.75,0l-.29-.45H187.36ZM256,198.51a30.59,30.59,0,1,0,21.64,9A30.39,30.39,0,0,0,256,198.51Zm34.87,18.25a36.09,36.09,0,0,1,0,24.68l-.49,1.34h34.27V215.42H290.38Zm-103.51,26h34.26l-.49-1.34a36.09,36.09,0,0,1,0-24.68l.49-1.34H187.36Zm-33.82-85.51a103.1,103.1,0,0,0,25.61,63.48l1.75,2V191.05a11.69,11.69,0,0,1,11.69-11.68h1V165.68a3.23,3.23,0,0,1,3.23-3.23h16.91a3.23,3.23,0,0,1,3.22,3.23v13.69h8.11l2.34-14.24a3.21,3.21,0,0,1,3.18-2.68h50.79a3.24,3.24,0,0,1,3.24,2.68L287,179.37h12.33V165.68a3.23,3.23,0,0,1,3.23-3.23h16.91a3.24,3.24,0,0,1,3.23,3.23v14.15l.66.24a11.65,11.65,0,0,1,7.79,11v31.69l1.75-2a103.09,103.09,0,0,0,25.62-63.48l0-1H341.56v-6.46h18.67L298.28,98,275,117.4l28.82,24-4.14,5L226.41,85.32l-72.87,60.53v3.92h16.91v6.46h-17Zm102.38,34.67a37,37,0,0,1,30.87,16.57l.3.45h37.56V191.05a5.29,5.29,0,0,0-1.53-3.7,5.23,5.23,0,0,0-3.7-1.53H192.59a5.23,5.23,0,0,0-5.23,5.23V209h37.39l.29-.45A37,37,0,0,1,255.92,191.94Zm49.82-12.57h10.45V168.91H305.74Zm-74.13,0H280.4l-1.78-10.46H233.39Zm-31.57,0H210.5V168.91H200Zm98.41-88.8a3.22,3.22,0,0,1,2.06.75l57,47.68-.44-2.65a102.47,102.47,0,0,0-96.83-85.82l-1,0V67.44h-6.46v-16l-.23-.91-.81,0a102.48,102.48,0,0,0-96.36,83.3l-.52,2.73,69.49-57.71a3.23,3.23,0,0,1,4.14,0L270,113.2l26.42-21.88A3.27,3.27,0,0,1,298.45,90.57Z" transform="translate(0.53 -27.17)"/><rect x="249.08" y="132.61" width="14.91" height="6.46"/><path d="M256,183.14a20.14,20.14,0,1,1,14.24-5.9A20,20,0,0,1,256,183.14Zm0-33.82a13.66,13.66,0,1,0,9.68,4A13.82,13.82,0,0,0,256,149.32Z" transform="translate(0.53 -27.17)"/><rect x="47.76" y="381.24" width="416.65" height="2.7"/><path d="M471,412.28a2.53,2.53,0,1,1,2.53-2.53A2.52,2.52,0,0,1,471,412.28Z" transform="translate(0.53 -27.17)"/><path d="M486.65,412.28a2.53,2.53,0,1,1,2.52-2.53A2.53,2.53,0,0,1,486.65,412.28Z" transform="translate(0.53 -27.17)"/><polygon points="498.29 388.52 512.17 382.6 498.26 376.65 492.34 382.6 498.29 388.52"/><path d="M40.12,412.28a2.53,2.53,0,1,0-2.52-2.53A2.53,2.53,0,0,0,40.12,412.28Z" transform="translate(0.53 -27.17)"/><path d="M24.46,412.28a2.53,2.53,0,1,0-2.53-2.53A2.52,2.52,0,0,0,24.46,412.28Z" transform="translate(0.53 -27.17)"/><polygon points="13.88 388.52 0 382.6 13.91 376.65 19.83 382.6 13.88 388.52"/><rect x="47.76" y="477.24" width="416.65" height="2.7"/><path d="M471,508.28a2.53,2.53,0,1,1,2.53-2.53A2.52,2.52,0,0,1,471,508.28Z" transform="translate(0.53 -27.17)"/><path d="M486.65,508.28a2.53,2.53,0,1,1,2.52-2.53A2.53,2.53,0,0,1,486.65,508.28Z" transform="translate(0.53 -27.17)"/><polygon points="498.29 484.52 512.17 478.6 498.26 472.65 492.34 478.6 498.29 484.52"/><path d="M40.12,508.28a2.53,2.53,0,1,0-2.52-2.53A2.53,2.53,0,0,0,40.12,508.28Z" transform="translate(0.53 -27.17)"/><path d="M24.46,508.28a2.53,2.53,0,1,0-2.53-2.53A2.52,2.52,0,0,0,24.46,508.28Z" transform="translate(0.53 -27.17)"/><polygon points="13.88 484.52 0 478.6 13.91 472.65 19.83 478.6 13.88 484.52"/></svg>