<svg id="image" xmlns="http://www.w3.org/2000/svg" viewBox="0 0 433.21 104.68"><title>logo-ribbon-ornament</title><path d="M242,49.52s-4.66,8.8-17.09,3.69-27.73-28.83-56.71-28.52c0,0,20.86-3.39,41,12C230.77,53.07,231.89,55.77,242,49.52Z" transform="translate(-39.31 -15)"/><path d="M255.56,42.08s10.86,1.19,13.76,9.57-1.86,19.41-17.66,20.57C236.34,73.34,221.37,64.6,214,59.37c-4.61-3.26-31.65-25.36-55.18-23.53s-26,20.78-24.11,29.29,9.86,22,30.36,20,23.45-23.21,17.05-32.05-19.07-12.49-29-4.82c0,0-7.3,6.11-1.23,14,0,0,3.68-7.83,10.32-6s5.65,8.88-.12,11.23S146,66.63,145.54,56.4s9.38-15.68,22.69-14.86S188.52,53,187.71,67.21s-17.59,22.73-34.6,22-30.33-13.75-29.55-32.32,21.34-27.23,34-26.67S187.59,33,212.06,54c0,0,17,13.8,33.54,15.86s21.13-7.66,21.52-12.07S264.52,44.66,255.56,42.08Z" transform="translate(-39.31 -15)"/><path d="M179.55,36.53S164.08,25.7,151.91,26.2c-13.92.57-17.82,5.43-19.41,8.66s-2.81,4.57-4.49,3.65c-2.65-1.43,2.12-7.79,10.25-11.24,7.86-3.34,24.4-7.18,56.85,14.27Z" transform="translate(-39.31 -15)"/><path d="M270.12,49.52s4.66,8.8,17.09,3.69,27.73-28.83,56.72-28.52c0,0-20.87-3.39-41,12C281.38,53.07,280.25,55.77,270.12,49.52Z" transform="translate(-39.31 -15)"/><path d="M256.59,42.08s-10.86,1.19-13.76,9.57,1.87,19.41,17.66,20.57c15.32,1.12,30.29-7.62,37.67-12.85,4.6-3.26,31.64-25.36,55.17-23.53s26,20.78,24.12,29.29-9.86,22-30.37,20S323.63,61.94,330,53.1s19.07-12.49,29-4.82c0,0,7.3,6.11,1.23,14,0,0-3.67-7.83-10.31-6s-5.65,8.88.11,11.23,16.13-.85,16.54-11.08-9.38-15.68-22.68-14.86S323.63,53,324.44,67.21,342,89.94,359,89.2s30.33-13.75,29.55-32.32-21.34-27.23-34-26.67S324.56,33,300.1,54c0,0-17,13.8-33.55,15.86S245.43,62.16,245,57.75,247.64,44.66,256.59,42.08Z" transform="translate(-39.31 -15)"/><path d="M332.6,36.53S348.08,25.7,360.24,26.2c13.92.57,17.82,5.43,19.41,8.66s2.82,4.57,4.5,3.65c2.65-1.43-2.13-7.79-10.25-11.24C366,23.93,349.49,20.09,317,41.54Z" transform="translate(-39.31 -15)"/><path d="M133.76,40.55s7.43,2.07,8.45,8.25-3.65,13.33-14.81,12.33c-10.82-1-20.21-8.77-24.73-13.26-2.81-2.8-19-21.31-35.66-22.72S46.38,36.68,46.66,42.83s4.22,16.49,18.77,17.44S84.59,46.75,81.19,39.85,69.39,29,61.53,33.17c0,0-5.83,3.44-2.55,9.62,0,0,3.52-5,7.93-3s2.87,6.85-1.44,7.82S54.32,45.16,55.27,38s8.44-9.87,17.62-7.78,12.78,10.31,10.5,20.14-15,13.85-26.8,11.39S37.09,48.67,39.88,35.8s18.17-16.56,27-14.72S87.44,26.44,102,43.87c0,0,10.2,11.57,21.5,14.9s15.66-2.94,16.46-6A11.22,11.22,0,0,0,133.76,40.55Z" transform="translate(-39.31 -15)"/><path d="M378.06,40.55s-7.43,2.07-8.44,8.25,3.64,13.33,14.8,12.33c10.83-1,20.21-8.77,24.73-13.26,2.82-2.8,19-21.31,35.66-22.72s20.63,11.53,20.36,17.68-4.23,16.49-18.77,17.44-19.16-13.52-15.76-20.42S442.44,29,450.3,33.17c0,0,5.83,3.44,2.54,9.62,0,0-3.51-5-7.92-3s-2.88,6.85,1.43,7.82,11.16-2.43,10.21-9.61-8.44-9.87-17.63-7.78-12.78,10.31-10.49,20.14,15,13.85,26.79,11.39S474.73,48.67,472,35.8s-18.18-16.56-27-14.72-20.59,5.36-35.13,22.79c0,0-10.2,11.57-21.49,14.9s-15.66-2.94-16.47-6A11.23,11.23,0,0,1,378.06,40.55Z" transform="translate(-39.31 -15)"/><path d="M270.21,89.77a18,18,0,0,0,9.56,3.94c2.42.14,3.61-.54,3.61-1.24,0-1.62-4.1-1.71-10.19-6.25-3-2.28-5.74-4.71-7.86-6.44S261.74,77,261.74,77a29.79,29.79,0,0,0,1.67,4.14A23.81,23.81,0,0,0,270.21,89.77Z" transform="translate(-39.31 -15)"/><path d="M222.71,76.56c2,.65,5.31.91,6.44,3,2.29,4.13.83,6.47-.77,8.34-1.82,2.14-7.06,3.77-9.14,1a3.23,3.23,0,0,1-.66-2.26A3.6,3.6,0,0,0,221.07,88c6.44.73,6.17-9.83.43-10.26a6.21,6.21,0,0,0-3.73,1.14c-6.16,4-4.24,13.89,1.39,17.33,7.22,4.42,18.69-.83,24.65-5.24a34,34,0,0,0,8.06-8.56c2-3,2.63-6.21,4.18-9.34,1.54,3.13,2.18,6.34,4.17,9.34A34.13,34.13,0,0,0,268.28,91c6,4.41,17.44,9.66,24.65,5.24,5.63-3.44,7.54-13.36,1.39-17.33a6.19,6.19,0,0,0-3.73-1.14c-5.74.43-6,11,.42,10.26a3.62,3.62,0,0,0,2.51-1.42,3.27,3.27,0,0,1-.65,2.26c-2.09,2.76-7.12.92-9.15-1a5.65,5.65,0,0,1-.21-8.31c1.48-1.58,3.82-2.33,5.87-3,9.73-3.12,18.8,5.6,12.39,14.65-3.66,5.15-12.1,8-18.44,8.28a25.74,25.74,0,0,1-20.71-9.22,20.71,20.71,0,0,0,1.23,1.87c2.42,3.29,6.58,6.47,6.52,10.86-.09,8-10.59,10.48-14.32,16.68-3.73-6.2-14.23-8.63-14.33-16.68-.05-4.39,4.11-7.57,6.52-10.86.46-.62.86-1.24,1.24-1.87a25.75,25.75,0,0,1-20.72,9.22c-6.34-.31-14.78-3.13-18.43-8.28C203.91,82.16,213,73.44,222.71,76.56Zm22.23,27.49c-.15,6.29,7.32,9.1,11.11,13.26,3.78-4.16,11.25-7,11.11-13.26-.12-4.74-5.26-8.33-7.69-12a26,26,0,0,1-3.42-7.32,25.73,25.73,0,0,1-3.43,7.32C250.2,95.72,245,99.31,244.94,104.05Z" transform="translate(-39.31 -15)"/><path d="M250.27,107.32a24,24,0,0,0,2.67,2.67l3.11,2.82,3.12-2.82a24.73,24.73,0,0,0,2.65-2.67,6.85,6.85,0,0,0,.15-9c-1.18-1.77-2.74-3.36-3.83-5.2a24.83,24.83,0,0,1-2.09-4.88A26.08,26.08,0,0,1,254,93.15c-1.1,1.84-2.66,3.43-3.83,5.2a6.84,6.84,0,0,0,.14,9Z" transform="translate(-39.31 -15)"/><path d="M228.72,92.47c0,.7,1.19,1.38,3.6,1.24a18.07,18.07,0,0,0,9.57-3.94,24.15,24.15,0,0,0,6.8-8.63A28.8,28.8,0,0,0,250.35,77s-1.47,1-3.58,2.78-4.87,4.16-7.86,6.44C232.81,90.76,228.71,90.85,228.72,92.47Z" transform="translate(-39.31 -15)"/><path d="M85.65,55.51s1.34,2.09,5.59-.64c0,0,2.26-1.32,6.62,3.08a12.64,12.64,0,0,0,10.83-.54S90.21,68.22,85.65,55.51Z" transform="translate(-39.31 -15)"/><path d="M125.4,83.12s-2.38-.83-.55-5.45c0,0,.84-2.44-4.5-5.64a11.76,11.76,0,0,1-1.77-10.41S111.67,81.49,125.4,83.12Z" transform="translate(-39.31 -15)"/><path d="M114.89,59.88s-11,.86-12.62,9.42a9.09,9.09,0,0,0,4.24,9.76c2.52,1.44,5.53,1.07,5.35-2.34s-3.85-5.14-3.13-8.66S112.17,62,114.89,59.88Z" transform="translate(-39.31 -15)"/><path d="M244.89,42.61s-1.35-2.09-5.6.64c0,0-2.26,1.32-6.61-3.08a12.67,12.67,0,0,0-10.84.54S240.32,29.91,244.89,42.61Z" transform="translate(-39.31 -15)"/><path d="M205.13,15s2.38.83.55,5.45c0,0-.84,2.44,4.5,5.64A11.77,11.77,0,0,1,212,36.5S218.86,16.64,205.13,15Z" transform="translate(-39.31 -15)"/><path d="M215.64,38.24s11-.86,12.63-9.42A9.08,9.08,0,0,0,224,19.07c-2.52-1.45-5.53-1.08-5.35,2.33s3.86,5.15,3.12,8.66S218.36,36.12,215.64,38.24Z" transform="translate(-39.31 -15)"/><path d="M264.15,42.61s1.35-2.09,5.59.64c0,0,2.27,1.32,6.63-3.08a12.64,12.64,0,0,1,10.83.54S268.72,29.91,264.15,42.61Z" transform="translate(-39.31 -15)"/><path d="M303.91,15s-2.38.83-.55,5.45c0,0,.84,2.44-4.5,5.64a11.77,11.77,0,0,0-1.77,10.41S290.18,16.64,303.91,15Z" transform="translate(-39.31 -15)"/><path d="M293.4,38.24s-11-.86-12.62-9.42A9.06,9.06,0,0,1,285,19.07c2.52-1.45,5.53-1.08,5.35,2.33s-3.85,5.15-3.12,8.66S290.68,36.12,293.4,38.24Z" transform="translate(-39.31 -15)"/><path d="M428.57,55.51s-1.34,2.09-5.59-.64c0,0-2.27-1.32-6.62,3.08a12.67,12.67,0,0,1-10.84-.54S424,68.22,428.57,55.51Z" transform="translate(-39.31 -15)"/><path d="M388.81,83.12s2.38-.83.55-5.45c0,0-.84-2.44,4.5-5.64a11.76,11.76,0,0,0,1.77-10.41S402.54,81.49,388.81,83.12Z" transform="translate(-39.31 -15)"/><path d="M399.32,59.88s11,.86,12.62,9.42a9.08,9.08,0,0,1-4.24,9.76c-2.52,1.44-5.53,1.07-5.35-2.34s3.85-5.14,3.12-8.66S402,62,399.32,59.88Z" transform="translate(-39.31 -15)"/><path d="M389.63,19s1.83,1-.39,4.56c0,0-1.06,1.87,2.83,5.29a9.77,9.77,0,0,1-.15,8.81S400.65,22.38,389.63,19Z" transform="translate(-39.31 -15)"/><path d="M392.15,41.33s2.22-8.72,9.68-8.85a7.89,7.89,0,0,1,7.68,4.72c.89,2.22.17,4.58-2.7,4S403,37.39,399.9,37.5,394.31,39.43,392.15,41.33Z" transform="translate(-39.31 -15)"/><path d="M124.75,19s-1.83,1,.39,4.56c0,0,1.06,1.87-2.83,5.29a9.77,9.77,0,0,0,.15,8.81S113.73,22.38,124.75,19Z" transform="translate(-39.31 -15)"/><path d="M122.23,41.33s-2.22-8.72-9.67-8.85a7.9,7.9,0,0,0-7.69,4.72c-.89,2.22-.17,4.58,2.7,4s3.83-3.79,6.91-3.68S120.07,39.43,122.23,41.33Z" transform="translate(-39.31 -15)"/></svg>